<svg width="20" height="20" viewBox="0 0 20 20" fill="none" xmlns="http://www.w3.org/2000/svg">
<path d="M12.35 1H6.05C5.57261 1 5.11477 1.18964 4.77721 1.52721C4.43964 1.86477 4.25 2.32261 4.25 2.8V17.2C4.25 17.6774 4.43964 18.1352 4.77721 18.4728C5.11477 18.8104 5.57261 19 6.05 19H16.85C17.3274 19 17.7852 18.8104 18.1228 18.4728C18.4604 18.1352 18.65 17.6774 18.65 17.2V7.3L12.35 1Z" stroke="black" stroke-linecap="round" stroke-linejoin="round"/>
<path d="M12.3499 1V7.3H18.6499" stroke="black" stroke-linecap="round" stroke-linejoin="round"/>
<rect x="2" y="10" width="13.5" height="6.75" rx="1" fill="#F24646"/>
<path d="M13.5968 11.35V11.7418H11.9924V12.9862H13.295V13.378H11.9924V15.0407H11.5105V11.35H13.5968Z" fill="white"/>
<path d="M8.91566 11.35C9.31809 11.35 9.66581 11.4259 9.95881 11.5777C10.2553 11.7259 10.4813 11.9395 10.6366 12.2184C10.7954 12.4973 10.8749 12.8256 10.8749 13.2033C10.8749 13.581 10.7954 13.9093 10.6366 14.1882C10.4813 14.4635 10.2553 14.6754 9.95881 14.8236C9.66581 14.9684 9.31809 15.0407 8.91566 15.0407H7.7666V11.35H8.91566ZM8.91566 14.6436C9.39222 14.6436 9.75583 14.5183 10.0065 14.2676C10.2571 14.0135 10.3824 13.6587 10.3824 13.2033C10.3824 12.7444 10.2553 12.3861 10.0012 12.1284C9.75053 11.8707 9.38869 11.7418 8.91566 11.7418H8.24846V14.6436H8.91566Z" fill="white"/>
<path d="M7.16751 12.4302C7.16751 12.7373 7.0616 12.9932 6.8498 13.198C6.64152 13.3992 6.32204 13.4998 5.89137 13.4998H5.18181V15.0407H4.69995V11.35H5.89137C6.30792 11.35 6.62387 11.4506 6.83921 11.6518C7.05808 11.853 7.16751 12.1125 7.16751 12.4302ZM5.89137 13.1027C6.15966 13.1027 6.35735 13.0444 6.48443 12.9279C6.61151 12.8114 6.67506 12.6455 6.67506 12.4302C6.67506 11.9748 6.41383 11.7471 5.89137 11.7471H5.18181V13.1027H5.89137Z" fill="white"/>
</svg>
